<?xml version="1.0" encoding="UTF-8" standalone="no"?>
<!-- Created with Inkscape (http://www.inkscape.org/) -->

<svg
   xmlns:dc="http://purl.org/dc/elements/1.1/"
   xmlns:cc="http://creativecommons.org/ns#"
   xmlns:rdf="http://www.w3.org/1999/02/22-rdf-syntax-ns#"
   xmlns:svg="http://www.w3.org/2000/svg"
   xmlns="http://www.w3.org/2000/svg"
   xmlns:sodipodi="http://sodipodi.sourceforge.net/DTD/sodipodi-0.dtd"
   xmlns:inkscape="http://www.inkscape.org/namespaces/inkscape"
   width="191.80316mm"
   height="194.88457mm"
   viewBox="0 0 191.80316 194.88457"
   version="1.1"
   id="svg29"
   inkscape:version="0.92.3 (2405546, 2018-03-11)"
   sodipodi:docname="nmi.svg">
  <defs
     id="defs23" />
  <sodipodi:namedview
     id="base"
     pagecolor="#ffffff"
     bordercolor="#666666"
     borderopacity="1.0"
     inkscape:pageopacity="0.0"
     inkscape:pageshadow="2"
     inkscape:zoom="0.35"
     inkscape:cx="368.17693"
     inkscape:cy="334.11322"
     inkscape:document-units="mm"
     inkscape:current-layer="layer1"
     showgrid="false"
     inkscape:window-width="1920"
     inkscape:window-height="1017"
     inkscape:window-x="-8"
     inkscape:window-y="-8"
     inkscape:window-maximized="1" />
  <metadata
     id="metadata26">
    <rdf:RDF>
      <cc:Work
         rdf:about="">
        <dc:format>image/svg+xml</dc:format>
        <dc:type
           rdf:resource="http://purl.org/dc/dcmitype/StillImage" />
        <dc:title></dc:title>
      </cc:Work>
    </rdf:RDF>
  </metadata>
  <g
     inkscape:label="Layer 1"
     inkscape:groupmode="layer"
     id="layer1"
     transform="translate(-8.4198547,-42.349557)">
    <path
       inkscape:connector-curvature="0"
       id="path58"
       d="M 8.1075902,139.76189 V 42.036153 h 96.2138398 96.21385 v 97.725737 97.72575 H 104.32143 8.1075902 Z"
       style="fill:#fdfdfd;stroke-width:0.46957311" />
    <path
       inkscape:connector-curvature="0"
       id="path56"
       d="M 88.47993,236.92568 C 81.007637,235.54122 78.225263,234.87558 74.026188,233.46782 59.17173,228.4878 47.180264,220.92727 35.796161,209.36408 24.451544,197.841 16.950799,185.56755 12.06522,170.5332 c -1.417048,-4.36067 -2.1105616,-7.40376 -3.4600776,-15.18261 -0.6457807,-3.72239 -0.6457807,-27.455 0,-31.17739 1.349516,-7.77884 2.0430296,-10.82194 3.4600776,-15.18261 C 16.950799,93.956247 24.451544,81.682797 35.796161,70.159714 47.180264,58.596522 59.17173,51.035995 74.026188,46.055973 c 4.293201,-1.439315 7.289221,-2.143727 14.947718,-3.514449 3.664801,-0.655929 27.030254,-0.655929 30.695054,0 7.6585,1.370722 10.65452,2.075134 14.94772,3.514449 14.85446,4.980022 26.84592,12.540549 38.23003,24.103741 11.34461,11.523083 18.84536,23.796533 23.73094,38.830876 1.41705,4.36067 2.11056,7.40377 3.46007,15.18261 0.64579,3.72239 0.64579,27.455 0,31.17739 -1.34951,7.77885 -2.04302,10.82194 -3.46007,15.18261 -4.88558,15.03435 -12.38633,27.3078 -23.73094,38.83088 -11.38411,11.56319 -23.37557,19.12372 -38.23003,24.10374 -4.2932,1.43932 -7.28922,2.14373 -14.94772,3.51445 -3.39453,0.60755 -27.843882,0.56319 -31.18903,-0.0566 z m -44.150592,-80.25052 0.112436,-17.63385 1.387398,-2.7916 c 1.606913,-3.2333 5.386359,-6.86827 8.456559,-8.13329 2.827102,-1.16486 8.097575,-1.16831 10.764767,-0.007 2.683183,1.16822 6.021613,4.98962 7.143168,8.17657 0.79665,2.26373 0.915718,4.3938 1.13339,20.27626 l 0.243223,17.74681 h 2.329633 2.329633 v -17.51018 c 0,-18.72353 -0.164561,-20.42969 -2.409344,-24.98 -1.497018,-3.03455 -4.011046,-5.48362 -7.384317,-7.19352 -2.565392,-1.30039 -3.174326,-1.41185 -7.678587,-1.4055 -4.475812,0.006 -5.151499,0.1302 -7.938243,1.45544 -1.675307,0.79669 -4.138608,2.43417 -5.474001,3.63882 -3.091284,2.78864 -3.741341,2.58083 -3.922373,-1.25395 l -0.137631,-2.91541 -2.09667,-0.13954 -2.09667,-0.13953 0.137118,24.74843 c 0.07541,13.61165 0.230526,25.0264 0.344692,25.36613 0.141508,0.42109 0.913502,0.57171 2.425479,0.47325 l 2.217904,-0.14444 z m 49.042822,0.0974 0.232963,-17.53647 1.588661,-3.17751 c 2.853921,-5.70821 7.367606,-8.83774 12.746586,-8.83774 4.83808,0 8.5083,2.57087 10.77556,7.54793 0.9309,2.04349 0.993,3.1099 1.21404,20.84696 l 0.23297,18.6933 h 2.32963 2.32963 l 0.23297,-17.98343 c 0.22078,-17.04335 0.28439,-18.09476 1.21683,-20.11304 1.42647,-3.08765 4.49102,-6.36407 7.26652,-7.76889 3.55237,-1.79804 8.09381,-1.73543 11.34094,0.15636 1.29363,0.75367 2.93913,2.23077 3.65666,3.28245 2.78251,4.07825 2.8216,4.38583 3.07598,24.2065 l 0.23385,18.22005 h 2.32963 2.32963 V 156.3256 c 0,-14.02162 -0.14444,-18.50472 -0.65565,-20.34967 -1.84969,-6.67557 -5.29919,-10.61357 -10.73252,-12.25245 -6.96692,-2.10147 -13.82114,0.0445 -18.76445,5.87484 -1.09797,1.29499 -2.25179,2.35464 -2.56403,2.35477 -0.31224,1.3e-4 -1.39736,-1.14047 -2.41137,-2.53466 -3.48111,-4.78625 -8.06618,-6.82398 -14.18265,-6.30313 -4.13046,0.35172 -8.462626,2.41399 -10.734694,5.1101 -1.182825,1.40358 -1.899699,1.86973 -2.698638,1.7548 -1.001966,-0.14413 -1.087938,-0.38088 -1.087938,-2.99598 v -2.83949 H 90.5766 88.47993 l -0.121155,24.60888 c -0.06663,13.5349 -0.01635,24.88686 0.111729,25.22659 0.157833,0.41862 0.947663,0.57114 2.450788,0.47325 l 2.217904,-0.14444 z m 78.16327,-7.42737 -0.12057,-25.20046 h -2.09667 -2.09667 l -0.12115,24.6089 c -0.0666,13.5349 -0.0208,24.87511 0.10186,25.20046 0.13312,0.35313 1.07564,0.59156 2.33839,0.59156 h 2.11537 z m -0.3692,-36.07694 c 1.47182,-0.77307 2.56735,-3.32419 2.05558,-4.78679 -1.0215,-2.91936 -4.06943,-3.91391 -6.3676,-2.07777 -2.91685,2.33045 -1.33706,7.35254 2.37064,7.5362 0.33305,0.0165 1.20667,-0.28573 1.94138,-0.67164 z"
       style="fill:#e9d1d1;stroke-width:0.46957311" />
    <path
       inkscape:connector-curvature="0"
       id="path54"
       d="m 91.741416,237.02572 c -0.512519,-0.22993 -1.624681,-0.43302 -2.471475,-0.45131 -0.846793,-0.0183 -4.096631,-0.65528 -7.221862,-1.41553 -37.979126,-9.23876 -66.628531,-40.499 -73.116633,-79.7798 -0.7225528,-4.37453 -0.7225528,-26.85984 0,-31.23437 6.902376,-41.788928 38.871994,-74.260915 80.014411,-81.271755 4.306858,-0.733907 26.444293,-0.733907 30.751153,0 41.14241,7.01084 73.11203,39.482827 80.01441,81.271755 0.72256,4.37453 0.72256,26.85984 0,31.23437 -6.89854,41.76569 -38.94146,74.31572 -80.01441,81.28071 -3.60674,0.61162 -26.733175,0.91434 -27.955594,0.36593 z M 44.63298,174.2703 c 0.155547,-0.41171 0.282812,-8.3917 0.282812,-17.73331 v -16.98473 l 1.143276,-2.62578 c 2.424973,-5.56945 7.950044,-9.23729 13.900334,-9.22779 5.433352,0.009 9.425682,2.93172 11.62834,8.51385 0.978036,2.4786 1.038756,3.4614 1.27184,20.58629 l 0.24477,17.98343 h 2.79556 2.795559 l 0.122371,-16.92022 c 0.09613,-13.29199 -0.02167,-17.62195 -0.549406,-20.19269 -1.907756,-9.29342 -7.697453,-14.62421 -16.38889,-15.08985 -5.869589,-0.31446 -11.232818,1.62827 -14.967578,5.42172 -2.326449,2.36301 -2.858442,2.12151 -3.022278,-1.37196 l -0.138714,-2.9578 -2.518499,-0.14559 c -1.385174,-0.0801 -2.643176,0.059 -2.79556,0.30907 -0.152383,0.25007 -0.140822,2.55169 0.02569,5.1147 0.166515,2.56302 0.323765,13.83513 0.349445,25.04913 0.02568,11.21402 0.18647,20.53109 0.35731,20.70461 0.170841,0.17353 1.40641,0.3155 2.745712,0.3155 1.790673,0 2.509936,-0.1981 2.717905,-0.74858 z m 49.212253,-17.23485 c 0.230331,-17.02387 0.281923,-17.83855 1.266529,-19.99897 1.412484,-3.09926 5.016708,-6.89375 7.811888,-8.22426 4.7133,-2.24353 10.77898,-0.87199 13.43764,3.03844 2.89606,4.25961 2.84921,3.89363 3.10276,24.2383 l 0.23296,18.6933 h 2.79556 2.79556 l 0.23296,-17.98343 0.23297,-17.98343 1.30191,-2.69282 c 1.5725,-3.25252 5.51408,-7.06689 8.12297,-7.86082 5.67871,-1.72812 11.28616,0.42791 13.72104,5.27566 1.89749,3.77781 1.97067,4.53439 2.22723,23.02478 l 0.25281,18.22006 h 2.79556 2.79556 l 0.13634,-17.51018 c 0.14564,-18.70421 -0.10652,-21.52417 -2.32105,-25.95738 -1.42404,-2.85075 -4.42814,-5.8457 -7.30085,-7.27862 -2.36547,-1.1799 -3.11815,-1.31112 -7.52076,-1.31112 -4.46022,0 -5.13636,0.12175 -7.65678,1.37872 -1.68576,0.84071 -3.90258,2.56342 -5.68088,4.41466 l -2.91632,3.03594 -0.8421,-1.10192 c -0.46315,-0.60606 -1.99527,-2.28118 -3.40469,-3.72249 -3.33476,-3.41021 -6.29771,-4.45046 -11.80569,-4.14483 -4.59055,0.25473 -8.119401,1.82118 -11.139169,4.94463 -1.090217,1.12765 -2.234295,2.05188 -2.542389,2.05383 -0.362225,0.002 -0.609195,-1.04165 -0.69889,-2.95424 l -0.138716,-2.9578 h -2.71836 -2.718365 l 0.05812,25.2766 c 0.03196,13.90214 0.17297,25.46537 0.313354,25.69609 0.140384,0.23071 1.442327,0.35617 2.893209,0.27879 l 2.637969,-0.14068 z m 78.032547,17.51513 c 0.19985,-0.32843 0.39933,-42.05944 0.24277,-50.78442 -0.004,-0.20821 -1.21238,-0.31469 -2.68587,-0.23663 l -2.67908,0.14193 -0.12112,25.08215 c -0.0666,13.79518 -0.0208,25.34835 0.10187,25.67371 0.26801,0.71108 4.71884,0.81778 5.14143,0.12326 z m 0.16597,-61.30337 c 1.7707,-1.51336 2.19809,-3.39753 1.27801,-5.63419 -0.99122,-2.40959 -3.3906,-3.44796 -5.55579,-2.40437 -1.66901,0.80445 -3.10704,2.88811 -3.10704,4.50199 0,0.5704 0.35018,1.63922 0.77819,2.37516 1.48445,2.55246 4.38286,3.06199 6.60663,1.16141 z"
       style="fill:#d2a0a0;stroke-width:0.46957311" />
    <path
       inkscape:connector-curvature="0"
       id="path52"
       d="m 92.906233,236.97296 c -0.896909,-0.21728 -4.041913,-0.8444 -6.988899,-1.39359 C 67.881538,232.21832 49.750922,222.42768 36.342742,208.8088 22.930835,195.18614 13.275827,176.73658 9.9917293,158.4552 c -0.5377203,-2.9933 -1.181628,-6.3505 -1.4309062,-7.46045 -0.5883759,-2.61985 -0.5883759,-19.84586 0,-22.4657 0.2492782,-1.10996 0.8931859,-4.46716 1.4309062,-7.46045 C 13.275827,102.78721 22.930835,84.337653 36.342742,70.714992 49.75465,57.09233 67.918775,47.285604 85.917334,43.9499 c 2.946986,-0.54617 6.25225,-1.200197 7.34503,-1.453392 2.579314,-0.597621 19.538826,-0.597621 22.118136,0 1.09278,0.253195 4.39805,0.907222 7.34503,1.453392 17.99856,3.335704 36.16269,13.14243 49.57459,26.765092 13.41191,13.622661 23.06692,32.072218 26.35102,50.353608 0.53772,2.99329 1.18163,6.35049 1.4309,7.46045 0.58838,2.61984 0.58838,19.84585 0,22.4657 -0.24927,1.10995 -0.89318,4.46715 -1.4309,7.46045 -3.2841,18.28138 -12.93911,36.73094 -26.35102,50.3536 -13.4119,13.62266 -31.57603,23.42939 -49.57459,26.76509 -2.94698,0.54617 -6.25225,1.2002 -7.34503,1.45339 -2.37727,0.55081 -20.153799,0.50784 -22.474267,-0.0543 z m -49.064549,-61.77227 1.022562,-0.27851 0.142255,-17.58014 0.142254,-17.58015 1.211928,-2.62445 c 1.692316,-3.66475 3.736053,-5.84857 7.045315,-7.52822 2.410837,-1.22364 3.371573,-1.4419 6.346761,-1.4419 5.679086,0 9.325125,2.50218 11.476332,7.87592 0.850437,2.12441 0.931322,3.66395 1.065583,20.28234 0.162371,20.09763 -0.0073,19.16655 3.491957,19.16655 3.831561,0 3.60978,1.06042 3.591474,-17.17189 -0.01761,-17.54056 -0.385303,-21.46878 -2.435273,-26.01686 -3.573876,-7.92905 -12.255123,-11.89265 -20.987701,-9.58236 -3.587178,0.94903 -6.934154,2.7279 -8.911564,4.73638 -0.896933,0.91103 -1.847442,1.65641 -2.112244,1.65641 -0.271638,0 -0.481458,-1.10907 -0.481458,-2.54492 0,-3.18229 -0.564339,-3.70348 -3.806072,-3.51505 l -2.483937,0.14437 0.01553,2.9578 c 0.0085,1.62679 0.06096,13.27082 0.116481,25.87564 0.09417,21.37877 0.155708,22.93236 0.916323,23.13426 1.240089,0.32916 3.490653,0.34605 4.633493,0.0348 z m 49.656914,-0.30012 c 0.688281,-0.52845 0.78476,-2.48473 0.904424,-18.33837 l 0.133954,-17.7468 1.378318,-2.52742 c 2.943305,-5.39714 6.934546,-8.12066 11.900586,-8.12066 5.14605,0 8.3465,2.36804 10.31605,7.63291 0.78976,2.11116 0.86619,3.92111 0.86619,20.51377 0,17.50781 0.0342,18.21692 0.90122,18.68823 1.27214,0.69153 4.94413,0.60934 5.54339,-0.12406 0.33326,-0.40787 0.54792,-6.64313 0.63946,-18.57499 0.13559,-17.67451 0.15498,-17.99647 1.21526,-20.18287 1.34807,-2.77986 4.40257,-5.93429 6.84328,-7.06716 1.18751,-0.55118 2.96898,-0.86881 4.90999,-0.87544 3.82519,-0.0131 6.58521,1.3038 8.69899,4.15043 2.90892,3.91747 3.37617,7.6646 3.38798,27.17042 l 0.009,15.47743 1.63074,0.31074 c 0.89691,0.17091 2.37758,0.16843 3.29037,-0.005 l 1.65963,-0.31624 -0.17748,-18.78466 c -0.19248,-20.37358 -0.21027,-20.52683 -2.98256,-25.70047 -3.52046,-6.5699 -11.47174,-9.81923 -19.14326,-7.823 -3.68021,0.95765 -6.22997,2.56893 -9.37112,5.92196 -2.32283,2.47951 -2.53322,2.60065 -3.02853,1.74382 -1.31721,-2.27866 -4.83384,-5.56841 -7.23018,-6.76373 -2.30908,-1.15178 -3.14684,-1.30617 -7.04693,-1.29864 -3.8047,0.007 -4.80045,0.18547 -7.0905,1.26834 -1.46531,0.69287 -3.708725,2.25216 -4.985369,3.46508 -1.276643,1.21291 -2.541341,2.06708 -2.810437,1.89816 -0.2691,-0.16893 -0.489269,-1.44307 -0.489269,-2.83144 0,-1.86527 -0.192414,-2.5993 -0.736998,-2.81156 -1.162655,-0.45316 -4.77025,-0.33471 -5.075311,0.16664 -0.151896,0.24964 -0.267535,11.80281 -0.256972,25.67371 0.02156,28.30378 -0.2309,26.40292 3.506689,26.40292 1.055212,0 2.265279,-0.2662 2.689035,-0.59156 z m 78.032752,0.29328 1.04833,-0.28536 V 149.2223 c 0,-28.58494 0.28866,-26.26071 -3.26149,-26.26071 -3.55021,0 -3.26148,-2.32657 -3.26148,26.2812 0,24.08462 0.0514,25.72035 0.81537,25.92312 1.24977,0.33173 3.49377,0.34519 4.65927,0.0279 z m 1.12106,-62.00462 c 1.09089,-1.06157 1.32505,-1.6855 1.32505,-3.53073 0,-3.00039 -1.94667,-5.15359 -4.65927,-5.15359 -1.37986,0 -2.12176,0.33491 -3.22564,1.45615 -2.24937,2.28472 -2.1478,5.16751 0.26322,7.47082 1.43449,1.3704 1.89576,1.55375 3.31882,1.31919 0.90902,-0.14983 2.24904,-0.85266 2.97782,-1.56184 z"
       style="fill:#c17c7c;stroke-width:0.46957311" />
    <path
       inkscape:connector-curvature="0"
       id="path50"
       d="m 95.468829,237.05935 c -0.512519,-0.21411 -2.189855,-0.53878 -3.727413,-0.72149 -4.728512,-0.56187 -13.103962,-2.61121 -18.742256,-4.58593 -27.764143,-9.72392 -49.689925,-31.9784 -59.216031,-60.10376 -3.8541767,-11.37927 -5.4048559,-20.5276 -5.4048559,-31.88628 0,-11.35867 1.5506792,-20.507 5.4048559,-31.88626 9.51577,-28.094852 31.485144,-50.409452 59.14534,-60.074753 11.20322,-3.914741 20.210014,-5.489787 31.392961,-5.489787 11.18295,0 20.18975,1.575046 31.39297,5.489787 27.66019,9.665301 49.62957,31.979901 59.14534,60.074753 3.85417,11.37926 5.40485,20.52759 5.40485,31.88626 0,11.35868 -1.55068,20.50701 -5.40485,31.88628 -13.17991,38.91302 -49.08845,65.02677 -90.30534,65.6727 -4.48455,0.0703 -8.573051,-0.0474 -9.085571,-0.26152 z m -50.08711,-80.0239 c 0.228427,-17.86531 0.253767,-18.25963 1.301478,-20.25268 3.341476,-6.35647 9.570593,-9.53393 16.023094,-8.17334 4.214665,0.88871 7.139114,3.97048 8.786766,9.25947 0.408105,1.31003 0.675272,7.35823 0.867541,19.6398 l 0.277827,17.74681 h 3.261487 3.261486 l 0.122171,-17.64815 c 0.132956,-19.20585 -0.07009,-21.35335 -2.474574,-26.17294 -2.438818,-4.88841 -7.411122,-8.48289 -13.047007,-9.43169 -5.805861,-0.97742 -13.021489,1.26571 -16.734644,5.20231 -1.997539,2.11775 -2.508576,1.87174 -2.670709,-1.28565 l -0.139733,-2.72118 H 41.01805 37.819199 l 0.07911,25.46526 c 0.04351,14.0059 0.198335,25.78083 0.344049,26.16652 0.206927,0.54772 0.992011,0.67107 3.585664,0.56339 l 3.320729,-0.13787 z m 48.714523,17.85077 c 0.125903,-0.33325 0.282734,-8.26607 0.348513,-17.62849 0.102802,-14.63257 0.229506,-17.30571 0.902416,-19.03909 2.744303,-7.06915 8.891429,-11.05259 14.886879,-9.64693 3.42482,0.80296 5.35356,2.48558 7.07216,6.16971 l 1.45895,3.12748 0.23296,18.6933 0.23296,18.69331 3.07168,0.13823 c 2.15214,0.0969 3.22829,-0.0534 3.59485,-0.50205 0.36165,-0.44261 0.5641,-6.25673 0.65574,-18.83155 0.15095,-20.71582 0.0364,-20.05851 4.21911,-24.21937 2.75629,-2.74193 6.17535,-3.95078 9.79484,-3.4631 3.06634,0.41316 4.534,1.22932 6.58311,3.66087 3.0907,3.66752 3.22625,4.63289 3.5099,24.99691 l 0.25378,18.22006 3.36404,0.13876 c 3.20665,0.13226 3.37707,0.086 3.64262,-0.98863 0.15321,-0.62006 0.19917,-8.88153 0.10212,-18.35881 -0.18832,-18.3901 -0.32108,-19.58207 -2.77376,-24.90458 -3.8925,-8.44702 -14.8161,-11.88066 -23.5376,-7.39865 -2.43303,1.25035 -7.12227,5.42646 -7.12227,6.34291 0,1.03664 -1.39548,0.32592 -2.3095,-1.17623 -5.17334,-8.50217 -17.92995,-9.55455 -25.856712,-2.1331 -1.094643,1.02486 -2.113601,1.86339 -2.264352,1.86339 -0.150746,0 -0.336967,-1.22453 -0.413822,-2.72118 l -0.139731,-2.72118 h -3.23361 -3.23361 l 0.128871,25.78508 c 0.07088,14.18179 0.227959,25.94792 0.349067,26.14696 0.39054,0.64184 6.228782,0.422 6.480401,-0.24403 z m 78.719988,-0.4589 c 0.13987,-0.58564 0.19628,-12.35178 0.12536,-26.14696 l -0.12895,-25.08215 -3.21977,-0.14166 c -2.2608,-0.0995 -3.33416,0.0415 -3.6038,0.47324 -0.65115,1.04266 -0.49567,50.72763 0.16082,51.39444 0.31618,0.32114 1.83068,0.5679 3.48558,0.5679 2.64888,0 2.95058,-0.101 3.18076,-1.06481 z m -0.22772,-60.81238 c 2.66926,-2.44412 2.17028,-6.93156 -0.98099,-8.82231 -2.00195,-1.20116 -4.17178,-0.69335 -5.98115,1.39978 -2.06422,2.38797 -2.01057,4.9196 0.15078,7.11492 2.09799,2.13095 4.69212,2.24811 6.81136,0.30761 z"
       style="fill:#b05959;stroke-width:0.46957311" />
    <path
       inkscape:connector-curvature="0"
       id="path48"
       d="m 96.167719,236.67768 c -1.921947,-0.37281 -6.251868,-1.18841 -9.622046,-1.81246 -14.102988,-2.61141 -27.962441,-8.85409 -40.232101,-18.12166 -4.497595,-3.39714 -14.438249,-13.494 -17.782834,-18.06227 -9.217834,-12.59037 -15.26436,-26.48863 -17.881212,-41.10093 -0.636341,-3.55328 -1.468598,-8.19227 -1.8494598,-10.30886 -0.880725,-4.89453 -0.880725,-10.12468 0,-15.0192 0.3808618,-2.1166 1.2131188,-6.75559 1.8494598,-10.30887 2.616852,-14.6123 8.663378,-28.510558 17.881212,-41.100928 3.344585,-4.56827 13.285239,-14.665131 17.782834,-18.062272 12.348718,-9.327285 26.133222,-15.514272 40.465064,-18.162197 3.498308,-0.646341 8.06553,-1.491676 10.149378,-1.878522 4.818796,-0.894565 9.968036,-0.894565 14.786836,0 2.08385,0.386846 6.65107,1.232181 10.14938,1.878522 14.33184,2.647925 28.11635,8.834912 40.46506,18.162197 4.4976,3.397141 14.43826,13.494002 17.78284,18.062272 9.21783,12.59037 15.26436,26.488628 17.88121,41.100928 0.63634,3.55328 1.4686,8.19227 1.84946,10.30887 0.88073,4.89452 0.88073,10.12467 0,15.0192 -0.38086,2.11659 -1.21312,6.75558 -1.84946,10.30886 -2.61685,14.6123 -8.66338,28.51056 -17.88121,41.10093 -3.34458,4.56827 -13.28524,14.66513 -17.78284,18.06227 -12.34871,9.32729 -26.13322,15.51428 -40.46506,18.1622 -3.49831,0.64634 -8.06553,1.49168 -10.14938,1.87852 -4.58852,0.85182 -10.82666,0.80904 -15.547131,-0.1066 z M 45.365326,175.04999 c 0.307056,-0.58275 0.482453,-7.16049 0.482687,-18.10174 l 3.68e-4,-17.18636 1.331435,-2.85859 c 2.400029,-5.15286 7.155315,-8.26686 12.613712,-8.26009 3.632242,0.005 5.676342,0.85026 8.042396,3.32759 3.696951,3.87081 3.795518,4.49503 3.993858,25.2927 0.12553,13.1633 0.319062,18.07022 0.722992,18.33112 1.014346,0.65517 6.220023,0.4216 6.814321,-0.30575 0.411837,-0.50403 0.510968,-5.36039 0.388825,-19.04823 -0.15527,-17.40057 -0.217802,-18.53435 -1.182959,-21.44785 -2.074459,-6.26213 -5.986892,-10.39479 -11.68885,-12.3468 -4.42012,-1.51318 -10.347853,-1.17346 -14.570978,0.83507 -1.697304,0.80724 -3.92422,2.23688 -4.9487,3.17698 -1.024481,0.9401 -1.994531,1.70928 -2.155667,1.70928 -0.161135,0 -0.292974,-1.02222 -0.292974,-2.27159 0,-1.24938 -0.2516,-2.52715 -0.559112,-2.83949 -0.672859,-0.68343 -6.252648,-0.76864 -6.658475,-0.10167 -0.501956,0.82494 -0.25452,51.14724 0.256259,52.11664 0.392367,0.74466 1.010978,0.89417 3.699842,0.89417 2.715266,0 3.305399,-0.14557 3.71102,-0.91539 z m 49.404613,-17.30467 0.232964,-17.98343 1.233755,-2.67288 c 1.348862,-2.92225 4.146362,-6.05323 6.524682,-7.30243 0.83489,-0.43853 2.80173,-0.90198 4.37074,-1.02991 3.76655,-0.30709 6.58247,0.90971 8.57692,3.70624 2.68713,3.76777 2.82319,4.95335 2.82319,24.60049 0,14.77392 0.1129,17.93475 0.65696,18.39338 0.40164,0.33857 1.89544,0.49903 3.84389,0.41288 l 3.18694,-0.14091 0.23297,-18.45667 c 0.22084,-17.49602 0.28402,-18.56878 1.21404,-20.61034 4.3504,-9.54994 16.36651,-10.91155 20.66977,-2.3422 1.63731,3.26048 1.87844,6.28879 1.87844,23.59105 0,12.52822 0.1451,17.06637 0.55911,17.48689 0.32467,0.32977 1.88078,0.5679 3.71103,0.5679 2.73527,0 3.22183,-0.13272 3.68094,-1.00405 0.87226,-1.65545 0.299,-34.83548 -0.66759,-38.63955 -1.61243,-6.34583 -5.06449,-10.93578 -9.98749,-13.27965 -2.34923,-1.11849 -3.21732,-1.26366 -7.55618,-1.26366 -4.58819,0 -5.09881,0.0984 -7.9757,1.53694 -1.84925,0.92469 -4.13238,2.62088 -5.7313,4.25794 -2.47802,2.53712 -2.69099,2.65712 -3.15157,1.77579 -0.27168,-0.51986 -1.62465,-2.04992 -3.00661,-3.40014 -3.56352,-3.48169 -6.55845,-4.55402 -12.041,-4.31126 -4.98756,0.22085 -8.29261,1.54548 -11.613283,4.65446 l -2.131544,1.99566 v -2.36856 c 0,-3.09911 -0.549239,-3.51047 -4.453136,-3.33524 l -3.139236,0.1409 0.100155,26.01856 c 0.069,17.92398 0.257984,26.21173 0.607471,26.63946 0.352949,0.43196 1.513027,0.57902 3.812514,0.48333 l 3.305195,-0.13756 z m 78.259281,17.30467 c 0.31494,-0.59773 0.48231,-9.5586 0.48231,-25.82313 0,-16.26453 -0.16737,-25.2254 -0.48231,-25.82313 -0.40538,-0.76935 -0.99563,-0.91539 -3.69992,-0.91539 -1.76968,0 -3.34162,0.20383 -3.4932,0.45295 -0.34535,0.56756 -0.32345,52.03958 0.0224,52.60793 0.13928,0.22888 1.70114,0.41616 3.47082,0.41616 2.70429,0 3.29454,-0.14604 3.69992,-0.91539 z m -0.68888,-60.68633 c 2.84366,-2.27196 3.15302,-6.35323 0.67256,-8.87267 -2.33579,-2.37249 -5.37098,-2.12337 -7.88805,0.64743 -0.9186,1.0112 -1.16481,1.78203 -1.16481,3.64671 0,2.126 0.17553,2.52787 1.74038,3.98448 2.12868,1.98145 4.624,2.2047 6.63992,0.59405 z"
       style="fill:#992728;stroke-width:0.46957311" />
    <path
       inkscape:connector-curvature="0"
       id="path46"
       d="m 101.76291,237.14578 c -0.89467,-0.11462 -1.75255,-0.41527 -1.906403,-0.66812 -0.153854,-0.25285 -2.671689,-0.75226 -5.595192,-1.10979 -7.166464,-0.87645 -9.972087,-1.41349 -15.33288,-2.93499 -15.892543,-4.51063 -29.564191,-12.65569 -41.411927,-24.67167 -11.363983,-11.52536 -18.9673,-24.23985 -23.683604,-39.60443 -1.840894,-5.99718 -2.607833,-9.81148 -3.608762,-17.9478 -0.3818342,-3.10384 -0.9408797,-5.79817 -1.2423235,-5.9874 -0.7492851,-0.47036 -0.7492851,-8.449 0,-8.91936 0.3014438,-0.18924 0.8604893,-2.88357 1.2423235,-5.98741 1.000929,-8.13632 1.767868,-11.95062 3.608762,-17.9478 C 18.549208,96.002434 26.152525,83.287944 37.516508,71.762583 49.364244,59.746599 63.035892,51.601545 78.928435,47.090917 c 5.360793,-1.521503 8.166416,-2.05855 15.33288,-2.934989 2.97797,-0.364198 5.467766,-0.900381 5.66181,-1.219284 0.476295,-0.782783 8.320315,-0.782783 8.796615,0 0.19405,0.318903 2.68384,0.855086 5.66181,1.219284 7.16647,0.876439 9.97209,1.413486 15.33288,2.934989 15.89254,4.510628 29.56419,12.655682 41.41193,24.671666 11.36398,11.525361 18.9673,24.239851 23.6836,39.604427 1.8409,5.99718 2.60783,9.81148 3.60877,17.9478 0.38183,3.10384 0.94087,5.79817 1.24232,5.98741 0.74928,0.47036 0.74928,8.449 0,8.91936 -0.30145,0.18923 -0.86049,2.88356 -1.24232,5.9874 -1.00094,8.13632 -1.76787,11.95062 -3.60877,17.9478 -4.7163,15.36458 -12.31962,28.07907 -23.6836,39.60443 -11.84774,12.01598 -25.51939,20.16104 -41.41193,24.67167 -5.36079,1.5215 -8.16641,2.05854 -15.33288,2.93499 -2.9235,0.35753 -5.43951,0.84545 -5.59112,1.08426 -0.3395,0.53478 -4.81747,0.97677 -7.02752,0.69365 z M 45.23905,176.06495 c 0.410837,-0.26529 0.59351,-5.05664 0.69889,-18.33112 0.135825,-17.10987 0.189729,-18.07524 1.12375,-20.1256 2.36247,-5.18607 6.335159,-8.04799 11.652733,-8.39461 5.800269,-0.37809 8.943592,1.43489 11.31417,6.52567 l 1.212053,2.60286 0.146636,18.44509 c 0.09585,12.05627 0.317338,18.65401 0.639461,19.04824 0.601972,0.73674 6.096556,0.82084 7.398248,0.11325 0.864839,-0.47013 0.901196,-1.1627 0.900585,-17.15525 -9.32e-4,-18.38323 -0.37289,-22.25082 -2.601291,-27.03123 -2.8134,-6.03536 -8.912692,-10.2047 -15.494511,-10.59171 -5.841252,-0.34345 -11.00998,1.41513 -15.235827,5.18378 l -1.612228,1.4378 v -2.35732 c 0,-3.12472 -0.527049,-3.49506 -4.729087,-3.32301 l -3.417504,0.13993 0.160087,26.73851 c 0.08805,14.70619 0.25607,26.89825 0.373381,27.09346 0.278726,0.46383 6.748294,0.4476 7.470454,-0.0187 z m 49.259818,0.0864 c 0.653527,-0.25472 0.736998,-2.25498 0.736998,-17.66091 0,-19.15836 0.140649,-20.35517 2.828384,-24.06735 0.803821,-1.1102 2.43569,-2.70573 3.62637,-3.54561 2.02855,-1.43089 2.41649,-1.52706 6.15999,-1.52706 3.66142,0 4.13869,0.11115 5.71439,1.33078 0.94561,0.73192 2.29282,2.43562 2.9938,3.78598 l 1.2745,2.45521 0.23297,19.16655 c 0.12813,10.5416 0.40259,19.43275 0.6099,19.75811 0.49979,0.78434 6.91522,0.8041 7.68359,0.0237 0.41465,-0.42116 0.55978,-5.09833 0.56171,-18.10174 0.001,-10.47351 0.19422,-18.23461 0.47848,-19.27413 0.69945,-2.5579 3.19988,-6.07657 5.45707,-7.67932 1.50695,-1.07003 2.64007,-1.45301 4.7598,-1.60875 4.13599,-0.30387 5.89731,0.19403 8.15119,2.30423 3.85119,3.60569 4.44719,7.42758 4.44719,28.51769 v 15.82628 l 1.04834,0.28535 c 1.36643,0.37195 5.65697,0.37912 6.60134,0.011 0.65419,-0.25498 0.73609,-2.28896 0.72891,-18.10174 -0.009,-19.43947 -0.26915,-22.10218 -2.64307,-27.03457 -1.58298,-3.28902 -4.94512,-6.64458 -8.35587,-8.33953 -2.04007,-1.01379 -3.50606,-1.35674 -6.47671,-1.51511 -6.02702,-0.32131 -10.68659,1.59178 -15.16434,6.22605 -2.21083,2.2881 -2.38584,2.37931 -2.86058,1.49072 -0.99989,-1.87156 -4.74574,-5.10764 -7.30729,-6.31285 -3.39673,-1.59816 -8.16394,-1.91471 -11.99455,-0.79644 -2.83125,0.82654 -6.405701,2.87798 -7.861442,4.51183 -1.282868,1.43983 -1.625925,1.14981 -1.625925,-1.37452 0,-1.67496 -0.203899,-2.39508 -0.736998,-2.60286 -1.243451,-0.48465 -6.643951,-0.31828 -6.96824,0.21466 -0.544244,0.89445 -0.224842,52.6301 0.329107,53.30806 0.519755,0.63611 6.153213,0.8789 7.570986,0.3263 z m 77.964332,-0.011 1.04833,-0.28535 v -26.63269 c 0,-23.84897 -0.077,-26.66272 -0.73699,-26.91995 -0.95523,-0.37232 -5.95746,-0.37232 -6.91269,0 -0.65997,0.25723 -0.737,3.07237 -0.737,26.9357 0,20.87596 0.12616,26.70016 0.58241,26.88715 0.83466,0.34209 5.51628,0.35258 6.75594,0.0151 z m -0.83338,-60.97789 c 2.16443,-1.13686 3.27949,-2.94717 3.27949,-5.3243 0,-5.38821 -5.26434,-8.20431 -9.04091,-4.83634 -3.04409,2.71475 -3.19999,6.40254 -0.38333,9.06758 2.05257,1.94209 3.90197,2.27107 6.14475,1.09306 z"
       style="fill:#961e20;stroke-width:0.46957311" />
    <path
       inkscape:connector-curvature="0"
       id="path44"
       d="m 38.742265,177.97596 c -0.448455,-0.10285 -0.815372,-0.49082 -0.815372,-0.86216 0,-0.52847 0.809917,-0.67517 3.727413,-0.67517 3.498843,0 4.499605,0.40093 3.145004,1.25998 -0.626334,0.3972 -4.717541,0.58453 -6.057045,0.27735 z m 34.944495,-0.005 c -1.132425,-0.11014 -1.747225,-0.40968 -1.747225,-0.85125 0,-0.54329 0.864061,-0.6813 4.265554,-0.6813 4.147525,0 4.243585,0.0247 3.471656,0.89102 -0.793277,0.89034 -2.04928,1.02486 -5.989985,0.64154 z m 13.642578,-0.33204 c -0.785011,-0.96073 -0.02786,-1.20051 3.790844,-1.20051 2.93361,0 3.649757,0.13929 3.649757,0.70987 0,0.80023 -0.06674,0.81602 -4.066677,0.96228 -1.833924,0.0671 -3.075586,-0.1065 -3.373924,-0.47163 z m 32.635182,0.24282 c -0.62165,-0.15749 -1.21571,-0.54666 -1.32013,-0.86484 -0.13977,-0.42589 0.8652,-0.57851 3.80935,-0.57851 3.68523,0 4.79672,0.39 3.47542,1.21944 -0.69832,0.43837 -4.54767,0.58287 -5.96464,0.22391 z m 31.06605,-0.0615 c -1.67271,-0.98957 -0.7138,-1.38183 3.37797,-1.38183 3.2387,0 4.19334,0.14751 4.19334,0.64795 0,1.1172 -5.94872,1.69381 -7.57131,0.73388 z m 15.34276,0.12152 c -0.4304,-0.0841 -0.78255,-0.45684 -0.78255,-0.82818 0,-0.53178 0.84112,-0.67517 3.96038,-0.67517 3.89238,0 4.84945,0.4299 3.08833,1.38723 -0.79262,0.43086 -4.32199,0.49627 -6.26616,0.11612 z M 35.922321,175.66455 c -0.162897,-0.16546 -0.303726,-10.7603 -0.312954,-23.5441 -0.0092,-12.78379 -0.146599,-24.54535 -0.305268,-26.13681 -0.200139,-2.0074 -0.118585,-3.0002 0.266298,-3.24181 0.305133,-0.19155 0.698087,-0.20289 0.873233,-0.0252 0.175146,0.17768 0.42328,12.23144 0.55141,26.78611 0.225649,25.63227 0.152893,27.40668 -1.072719,26.16181 z m 10.391251,-17.8042 v -18.18391 l 1.424817,-2.89611 c 2.257633,-4.58892 5.967753,-7.14523 10.961134,-7.55235 3.9919,-0.32547 7.147798,0.79713 9.248401,3.28978 3.139334,3.72523 3.217549,4.27931 3.416523,24.20252 0.09835,9.84768 0.04333,18.25967 -0.12225,18.6933 -0.271644,0.71137 -0.366116,0.69865 -0.966681,-0.13021 -0.548633,-0.75719 -0.665614,-4.00208 -0.665614,-18.46336 0,-16.24709 -0.06754,-17.73243 -0.913276,-20.0826 -0.502302,-1.39583 -0.974052,-2.5989 -1.048335,-2.67348 -0.07428,-0.0746 -0.950141,-0.79294 -1.946348,-1.59636 -1.713934,-1.38225 -2.031771,-1.46076 -5.91307,-1.46076 -2.255975,0 -4.231354,0.21296 -4.389732,0.47324 -0.158378,0.26029 -0.687624,0.47325 -1.176102,0.47325 -1.257635,0 -4.045611,2.62601 -5.222493,4.91909 -0.954225,1.85925 -1.008524,2.73692 -1.259684,20.36082 -0.201247,14.12151 -0.398332,18.46369 -0.844882,18.61443 -0.45918,0.15501 -0.582408,-3.65081 -0.582408,-17.98729 z m 34.012642,0.4286 c 0,-19.35052 -0.279015,-22.23165 -2.604338,-26.89257 -1.639876,-3.28699 -5.407586,-7.0075 -8.810863,-8.70049 -2.60023,-1.2935 -3.169941,-1.39067 -8.153716,-1.39067 -5.038535,0 -5.53881,0.0879 -8.386679,1.47404 -1.665688,0.81073 -3.867191,2.16228 -4.89223,3.00347 l -1.863706,1.52942 -0.142617,-2.46423 c -0.166192,-2.87157 0.197429,-3.49247 1.177885,-2.01129 l 0.700441,1.05816 2.904334,-1.64972 c 1.597384,-0.90735 3.343561,-1.64972 3.880396,-1.64972 0.536834,0 1.105642,-0.21296 1.26402,-0.47325 0.162632,-0.26728 2.434657,-0.47325 5.220284,-0.47325 4.672395,0 5.109463,0.0865 8.293703,1.64217 5.867637,2.86657 11.040308,9.24668 12.136461,14.96944 0.219302,1.14493 0.408343,10.47588 0.420089,20.73544 0.01663,14.51787 -0.107779,18.6975 -0.561055,18.85106 -0.459031,0.1555 -0.582409,-3.56404 -0.582409,-17.55801 z m 15.0054,-0.42531 c 0.134429,-17.73416 0.158955,-18.14979 1.20784,-20.46799 1.321969,-2.92174 4.374276,-6.2103 6.850126,-7.38031 2.5377,-1.19925 6.38834,-1.16671 8.91436,0.0753 2.43738,1.19846 4.58329,4.31856 5.29931,7.70506 0.72955,3.45045 0.4464,38.2714 -0.30735,37.79758 -0.38695,-0.24324 -0.5826,-5.6372 -0.69889,-19.26774 l -0.16149,-18.92993 -1.4887,-2.60285 c -0.81879,-1.43158 -1.91776,-2.86975 -2.44217,-3.19593 -0.5244,-0.32619 -2.41423,-0.61565 -4.19962,-0.64326 -4.20228,-0.065 -6.92588,1.19713 -8.912535,4.13001 -2.564721,3.78626 -2.822318,5.88553 -2.751753,22.42508 0.08357,19.58646 0.128051,18.45668 -0.72672,18.45668 -0.638734,0 -0.704201,-2.03484 -0.582408,-18.10174 z m 31.598646,0.70987 c 0.007,-10.08413 0.21133,-18.2867 0.48722,-19.52149 0.69393,-3.10577 3.28577,-6.81538 5.81271,-8.31954 3.10459,-1.848 7.57942,-2.09963 10.46204,-0.58831 2.66006,1.39464 4.79468,4.57417 5.51427,8.21352 0.79585,4.02513 0.76019,37.75996 -0.0397,37.48994 -0.44663,-0.15078 -0.6452,-4.54531 -0.85179,-18.85105 -0.20576,-14.2484 -0.4217,-19.04565 -0.91428,-20.3108 -0.8739,-2.24456 -2.68553,-4.73248 -3.44605,-4.73248 -0.34206,0 -1.22247,-0.32293 -1.95648,-0.71764 -1.51425,-0.81426 -5.63022,-0.5431 -7.62457,0.5023 -2.14765,1.12577 -4.74718,4.30154 -5.27548,6.44493 -0.30493,1.23712 -0.55106,8.81914 -0.61968,19.08919 -0.0626,9.37031 -0.12465,17.40961 -0.13786,17.86511 -0.0132,0.45551 -0.33852,0.82819 -0.72291,0.82819 -0.60877,0 -0.69742,-2.24279 -0.6875,-17.39187 z m 31.88346,-0.71021 c -0.0179,-15.37906 -0.13971,-18.58246 -0.80963,-21.30006 -1.66525,-6.75524 -4.89429,-11.11908 -10.23611,-13.83348 -2.98559,-1.5171 -3.62013,-1.66116 -7.31684,-1.66116 -2.53704,0 -4.9047,0.29301 -6.34389,0.7851 -2.87876,0.98432 -7.23918,3.94276 -8.86895,6.01739 l -1.24089,1.57959 -3.08205,-3.17367 c -4.14788,-4.27117 -6.92713,-5.3755 -12.86652,-5.11252 -4.86709,0.21552 -8.202565,1.50824 -11.354628,4.40069 l -1.924273,1.76578 v -2.49466 c 0,-2.35209 0.0469,-2.45154 0.82073,-1.74023 0.758161,0.69691 1.015664,0.63116 3.377968,-0.86247 1.406473,-0.88928 2.911773,-1.62168 3.345103,-1.62756 0.43334,-0.006 0.91746,-0.22365 1.07584,-0.48394 0.16418,-0.26983 2.42909,-0.46486 5.26917,-0.45374 5.21765,0.0204 4.98742,-0.0456 10.40637,2.9845 0.86006,0.48091 2.19274,1.69558 2.96152,2.69926 1.65756,2.16404 2.19462,2.27299 3.23723,0.65676 0.98554,-1.52775 6.41417,-5.06304 8.87686,-5.78088 3.69439,-1.07686 7.99272,-1.19129 10.84769,-0.28877 5.73671,1.81349 11.11125,6.81432 13.16619,12.2507 1.7795,4.70766 1.90743,6.33906 1.93515,24.67595 0.0254,16.81916 -0.086,19.10005 -0.93297,19.09916 -0.17707,-1.9e-4 -0.33145,-8.14597 -0.34307,-18.10174 z m 15.09527,15.70355 c -0.32345,-4.89672 -0.15757,-50.5318 0.18495,-50.8805 0.1922,-0.19567 0.4638,-0.23961 0.60356,-0.0977 0.46795,0.4753 0.29557,52.53441 -0.17553,53.01292 -0.28736,0.29186 -0.50758,-0.43919 -0.61298,-2.03477 z M 84.792484,149.13436 c 0.02642,-17.42843 0.200675,-26.41199 0.514351,-26.51819 0.865817,-0.29315 1.076425,5.43625 1.076425,29.28297 0,22.15405 -0.04973,23.59299 -0.815371,23.5929 -0.76726,-8e-5 -0.813014,-1.55528 -0.775405,-26.35768 z m 78.929686,25.80565 c -0.18154,-23.35986 0.044,-51.7342 0.41424,-52.11024 0.3173,-0.32228 0.55941,-0.10863 0.74214,0.65493 0.14916,0.62329 0.21318,12.50899 0.14227,26.41266 -0.10052,19.70888 -0.25727,25.32283 -0.71134,25.47652 -0.32032,0.10842 -0.58461,-0.0868 -0.58731,-0.43387 z M 37.573456,121.43569 c 0.425789,-1.29743 6.803416,-1.30817 7.226757,-0.0122 0.144046,0.44098 -0.77534,0.59156 -3.611834,0.59156 -2.794369,0 -3.754561,-0.1539 -3.614923,-0.57939 z m 48.351011,0.22447 c 0.0037,-0.19522 0.161173,-0.58602 0.349445,-0.86844 0.483828,-0.72579 7.660509,-0.15295 7.915525,0.63181 0.14433,0.44416 -0.862295,0.59156 -4.039938,0.59156 -2.32769,0 -4.228955,-0.15972 -4.225032,-0.35493 z m 79.666313,-0.35494 c 0.59487,-0.72804 5.63884,-1.02477 7.18376,-0.42261 1.78142,0.69434 0.42212,1.13248 -3.51339,1.13248 -3.7253,0 -4.17874,-0.0877 -3.67037,-0.70987 z m 1.12665,-4.48118 c -1.58608,-0.65171 -4.7286,-4.62939 -5.05544,-6.39898 -0.37546,-2.03279 0.61291,-4.14324 2.94336,-6.28492 2.44861,-2.25028 4.70113,-2.83724 6.94468,-1.80964 3.0287,1.38721 5.70835,5.82477 5.07211,8.39955 -0.42252,1.7099 -2.84514,5.18857 -4.10931,5.9006 -1.23329,0.69464 -4.32446,0.79779 -5.7954,0.19339 z m 6.26899,-2.61952 c 1.06074,-0.97339 1.92771,-2.27042 2.09898,-3.1402 1.06233,-5.39515 -4.7089,-9.6837 -8.92658,-6.63326 -1.50543,1.0888 -2.89767,3.62548 -2.89767,5.27958 0,1.73234 1.47035,4.31783 2.99123,5.25983 2.31889,1.43628 4.61927,1.17463 6.73404,-0.76595 z"
       style="fill:#931819;stroke-width:0.46957311" />
  </g>
</svg>
